<?xml version="1.0" encoding="UTF-8"?>
<svg width="324px" height="85px" viewBox="0 0 324 85" version="1.1" xmlns="http://www.w3.org/2000/svg" xmlns:xlink="http://www.w3.org/1999/xlink">
    <!-- Generator: Sketch 47.1 (45422) - http://www.bohemiancoding.com/sketch -->
    <title>Logo blue</title>
    <desc>Created with Sketch.</desc>
    <defs></defs>
    <g id="Page-1" stroke="none" stroke-width="1" fill="none" fill-rule="evenodd">
        <g id="Logo-blue">
            <g id="finances" fill-rule="nonzero">
                <polygon id="Shape" fill-opacity="0.7" fill="#1084FE" points="58.5456055 27 0 64.1304726 36.4543945 85 59.8728223 70.1479231 64.3751172 62.7217912 71.5817578 62.7217912 95 47.8697143"></polygon>
                <polygon id="Shape" fill-opacity="0.7" fill="#1084FE" points="58.5456055 18 0 55.130353 36.4543945 76 95 38.869647"></polygon>
                <polygon id="Shape" fill-opacity="0.7" fill="#1084FE" points="58.5456055 9 0 46.130353 36.4543945 67 95 29.869647"></polygon>
                <polygon id="Shape" fill-opacity="0.7" fill="#1084FE" points="58.5456055 0 35.1275488 14.8520769 35.1275488 22.2782088 23.4182422 22.2782088 0 37.1302857 36.4543945 58 95 20.8695274"></polygon>
                <polygon id="Shape" fill="#FFFFFF" points="35.6695534 15 24 22.3752312 60.3304466 43.1018988 66.1653157 44 72 35.7264821"></polygon>
                <polygon id="Shape" fill="#DCE8FF" points="60 43.29034 60 70 71 62.7098435 71 36"></polygon>
            </g>
            <path d="M129.983398,60 L123.132812,60 L123.132812,27.1621094 L141.955078,27.1621094 L141.955078,32.8671875 L129.983398,32.8671875 L129.983398,41.3349609 L141.124023,41.3349609 L141.124023,47.0175781 L129.983398,47.0175781 L129.983398,60 Z M160.239258,39.2910156 C158.786777,39.2910156 157.648767,39.7514602 156.825195,40.6723633 C156.001623,41.5932663 155.529949,42.8997311 155.410156,44.5917969 L165.023438,44.5917969 C164.993489,42.8997311 164.551762,41.5932663 163.698242,40.6723633 C162.844722,39.7514602 161.691739,39.2910156 160.239258,39.2910156 Z M161.205078,60.4492188 C157.162089,60.4492188 154.002616,59.33367 151.726562,57.1025391 C149.450509,54.8714081 148.3125,51.7119345 148.3125,47.6240234 C148.3125,43.4163201 149.36441,40.1632602 151.468262,37.8647461 C153.572113,35.566232 156.480776,34.4169922 160.194336,34.4169922 C163.743182,34.4169922 166.505849,35.4277243 168.482422,37.4492188 C170.458994,39.4707132 171.447266,42.2633285 171.447266,45.8271484 L171.447266,49.1513672 L155.25293,49.1513672 C155.3278,51.0979915 155.904291,52.6178331 156.982422,53.7109375 C158.060552,54.8040419 159.572907,55.3505859 161.519531,55.3505859 C163.031909,55.3505859 164.461907,55.1933609 165.80957,54.8789062 C167.157233,54.5644516 168.564771,54.062829 170.032227,53.3740234 L170.032227,58.6748047 C168.834304,59.273766 167.554043,59.7192368 166.191406,60.0112305 C164.828769,60.3032241 163.166676,60.4492188 161.205078,60.4492188 Z M186.96875,60.4492188 C184.018865,60.4492188 181.701669,59.3037224 180.01709,57.0126953 C178.332511,54.7216682 177.490234,51.5472208 177.490234,47.4892578 C177.490234,43.3713987 178.347485,40.1632602 180.062012,37.8647461 C181.776539,35.566232 184.138657,34.4169922 187.148438,34.4169922 C190.307959,34.4169922 192.718742,35.6448445 194.380859,38.1005859 L194.605469,38.1005859 C194.261066,36.2288318 194.088867,34.5592521 194.088867,33.0917969 L194.088867,25.0507812 L200.961914,25.0507812 L200.961914,60 L195.706055,60 L194.380859,56.7431641 L194.088867,56.7431641 C192.531568,59.2138795 190.158219,60.4492188 186.96875,60.4492188 Z M189.37207,54.9912109 C191.124032,54.9912109 192.408036,54.4821014 193.224121,53.4638672 C194.040206,52.4456329 194.485677,50.716158 194.560547,48.2753906 L194.560547,47.5341797 C194.560547,44.8388537 194.145024,42.9072324 193.313965,41.7392578 C192.482906,40.5712832 191.13152,39.9873047 189.259766,39.9873047 C187.732414,39.9873047 186.54574,40.6349219 185.699707,41.9301758 C184.853674,43.2254297 184.430664,45.1083861 184.430664,47.5791016 C184.430664,50.049817 184.857418,51.9028259 185.710938,53.1381836 C186.564457,54.3735413 187.784823,54.9912109 189.37207,54.9912109 Z M226.074219,60 L224.749023,56.5859375 L224.569336,56.5859375 C223.416335,58.0384187 222.229661,59.0454073 221.009277,59.6069336 C219.788894,60.1684598 218.197926,60.4492188 216.236328,60.4492188 C213.825509,60.4492188 211.927579,59.7604236 210.54248,58.3828125 C209.157382,57.0052014 208.464844,55.0436325 208.464844,52.4980469 C208.464844,49.832669 209.396963,47.8673566 211.26123,46.6020508 C213.125498,45.336745 215.93683,44.6367194 219.695312,44.5019531 L224.052734,44.3671875 L224.052734,43.2666016 C224.052734,40.7210159 222.750013,39.4482422 220.144531,39.4482422 C218.138011,39.4482422 215.779636,40.0546814 213.069336,41.2675781 L210.800781,36.640625 C213.69077,35.1282476 216.895165,34.3720703 220.414062,34.3720703 C223.78322,34.3720703 226.366202,35.1057869 228.163086,36.5732422 C229.95997,38.0406974 230.858398,40.2717949 230.858398,43.2666016 L230.858398,60 L226.074219,60 Z M224.052734,48.3652344 L221.402344,48.4550781 C219.410797,48.5149743 217.92839,48.8743457 216.955078,49.5332031 C215.981766,50.1920606 215.495117,51.1953058 215.495117,52.5429688 C215.495117,54.474619 216.603179,55.4404297 218.819336,55.4404297 C220.406583,55.4404297 221.675614,54.9837285 222.626465,54.0703125 C223.577316,53.1568965 224.052734,51.944018 224.052734,50.4316406 L224.052734,48.3652344 Z M247.413086,42.6152344 L249.704102,42.6152344 C251.845388,42.6152344 253.447586,42.1922243 254.510742,41.3461914 C255.573899,40.5001585 256.105469,39.2685628 256.105469,37.6513672 C256.105469,36.0191976 255.659998,34.813806 254.769043,34.0351562 C253.878088,33.2565065 252.48178,32.8671875 250.580078,32.8671875 L247.413086,32.8671875 L247.413086,42.6152344 Z M263.135742,37.4042969 C263.135742,40.9381687 262.031424,43.6409412 259.822754,45.5126953 C257.614084,47.3844495 254.473328,48.3203125 250.400391,48.3203125 L247.413086,48.3203125 L247.413086,60 L240.450195,60 L240.450195,27.1621094 L250.939453,27.1621094 C254.922546,27.1621094 257.950999,28.0193599 260.024902,29.7338867 C262.098806,31.4484135 263.135742,34.0051913 263.135742,37.4042969 Z M286.743164,60 L285.417969,56.5859375 L285.238281,56.5859375 C284.085281,58.0384187 282.898606,59.0454073 281.678223,59.6069336 C280.457839,60.1684598 278.866872,60.4492188 276.905273,60.4492188 C274.494454,60.4492188 272.596524,59.7604236 271.211426,58.3828125 C269.826328,57.0052014 269.133789,55.0436325 269.133789,52.4980469 C269.133789,49.832669 270.065909,47.8673566 271.930176,46.6020508 C273.794443,45.336745 276.605775,44.6367194 280.364258,44.5019531 L284.72168,44.3671875 L284.72168,43.2666016 C284.72168,40.7210159 283.418958,39.4482422 280.813477,39.4482422 C278.806956,39.4482422 276.448581,40.0546814 273.738281,41.2675781 L271.469727,36.640625 C274.359715,35.1282476 277.56411,34.3720703 281.083008,34.3720703 C284.452165,34.3720703 287.035147,35.1057869 288.832031,36.5732422 C290.628915,38.0406974 291.527344,40.2717949 291.527344,43.2666016 L291.527344,60 L286.743164,60 Z M284.72168,48.3652344 L282.071289,48.4550781 C280.079743,48.5149743 278.597336,48.8743457 277.624023,49.5332031 C276.650711,50.1920606 276.164062,51.1953058 276.164062,52.5429688 C276.164062,54.474619 277.272124,55.4404297 279.488281,55.4404297 C281.075529,55.4404297 282.344559,54.9837285 283.29541,54.0703125 C284.246261,53.1568965 284.72168,51.944018 284.72168,50.4316406 L284.72168,48.3652344 Z M296.986328,34.8886719 L304.488281,34.8886719 L309.227539,49.0166016 C309.631838,50.2444723 309.908853,51.6969317 310.058594,53.3740234 L310.193359,53.3740234 C310.358074,51.831698 310.680011,50.3792386 311.15918,49.0166016 L315.808594,34.8886719 L323.15332,34.8886719 L312.529297,63.2119141 C311.555985,65.8323699 310.167164,67.7939388 308.362793,69.0966797 C306.558422,70.3994206 304.450858,71.0507812 302.040039,71.0507812 C300.85709,71.0507812 299.69662,70.9235039 298.558594,70.6689453 L298.558594,65.2333984 C299.382166,65.4280609 300.280594,65.5253906 301.253906,65.5253906 C302.466803,65.5253906 303.5262,65.1547889 304.432129,64.4135742 C305.338058,63.6723596 306.04557,62.5530674 306.554688,61.0556641 L306.958984,59.8203125 L296.986328,34.8886719 Z" id="FedaPay-outline" fill="#1084FE"></path>
        </g>
    </g>
</svg>