<?xml version="1.0" standalone="no"?>
<!DOCTYPE svg PUBLIC "-//W3C//DTD SVG 20010904//EN"
 "http://www.w3.org/TR/2001/REC-SVG-20010904/DTD/svg10.dtd">
<svg version="1.0" xmlns="http://www.w3.org/2000/svg"
 width="2806.000000pt" height="2806.000000pt" viewBox="0 0 2806.000000 2806.000000"
 preserveAspectRatio="xMidYMid meet">
<metadata>
Created by potrace 1.14, written by Peter Selinger 2001-2017
</metadata>
<g transform="translate(0.000000,2806.000000) scale(0.100000,-0.100000)"
fill="#000000" stroke="none">
<path d="M13568 28055 c-2 -2 -77 -6 -168 -9 -91 -4 -185 -9 -210 -11 -25 -2
-90 -6 -145 -9 -104 -7 -172 -12 -265 -22 -30 -3 -75 -7 -100 -9 -58 -4 -258
-24 -290 -30 -14 -2 -45 -6 -70 -9 -72 -8 -283 -36 -305 -40 -11 -2 -42 -7
-70 -10 -97 -14 -121 -18 -230 -36 -281 -48 -465 -84 -720 -139 -277 -60 -739
-181 -1035 -270 -123 -38 -348 -109 -370 -118 -8 -4 -17 -7 -20 -8 -36 -9
-262 -89 -419 -147 -281 -103 -718 -284 -929 -384 -52 -24 -96 -44 -98 -44 -3
0 -132 -63 -287 -140 -265 -131 -380 -190 -529 -273 -35 -19 -84 -46 -110 -60
-142 -78 -399 -229 -498 -292 -19 -12 -91 -57 -160 -100 -405 -253 -915 -617
-1305 -934 -125 -101 -375 -309 -385 -320 -3 -4 -39 -35 -80 -71 -41 -36 -95
-84 -120 -107 -25 -23 -56 -51 -70 -63 -14 -12 -88 -81 -165 -153 -285 -270
-614 -608 -849 -871 -33 -38 -66 -74 -71 -80 -6 -6 -37 -42 -70 -81 -33 -38
-62 -72 -65 -75 -10 -9 -255 -305 -285 -345 -16 -21 -50 -64 -75 -94 -67 -84
-203 -262 -260 -341 -10 -14 -33 -45 -52 -70 -45 -60 -278 -394 -314 -450 -16
-25 -31 -47 -34 -50 -3 -3 -21 -30 -40 -60 -19 -30 -38 -56 -42 -58 -5 -2 -8
-8 -8 -14 0 -5 -13 -28 -29 -51 -38 -54 -211 -335 -282 -457 -31 -52 -75 -129
-100 -170 -24 -41 -44 -77 -44 -80 0 -3 -8 -16 -16 -30 -111 -175 -412 -782
-619 -1245 -65 -146 -279 -676 -300 -745 -5 -14 -31 -90 -60 -170 -125 -353
-314 -967 -345 -1123 -2 -10 -7 -27 -10 -37 -3 -10 -8 -27 -10 -37 -3 -10 -13
-54 -24 -98 -62 -257 -155 -679 -165 -757 -3 -18 -16 -94 -30 -168 -14 -74
-27 -153 -31 -175 -3 -22 -12 -80 -20 -130 -24 -152 -35 -228 -40 -275 -2 -25
-6 -55 -9 -67 -3 -12 -7 -50 -11 -85 -3 -35 -8 -74 -10 -88 -4 -26 -13 -114
-20 -190 -5 -51 -12 -119 -20 -200 -4 -30 -8 -80 -10 -110 -1 -30 -6 -93 -9
-140 -13 -170 -15 -208 -23 -380 -10 -224 -9 -1046 1 -1255 10 -221 21 -393
31 -495 2 -19 6 -71 10 -115 3 -44 8 -98 10 -120 3 -22 7 -62 10 -90 6 -67 15
-142 20 -185 3 -19 7 -60 10 -90 4 -30 8 -67 10 -81 3 -14 12 -79 20 -145 9
-65 27 -186 41 -269 14 -82 29 -179 35 -215 5 -36 11 -72 14 -80 2 -8 7 -28 9
-45 3 -16 10 -55 16 -85 6 -30 13 -66 16 -80 22 -113 33 -164 74 -350 40 -180
131 -545 172 -685 11 -38 24 -88 29 -110 6 -22 19 -67 30 -100 11 -33 22 -69
24 -79 16 -74 269 -824 304 -901 5 -11 28 -67 50 -125 38 -100 98 -251 126
-315 7 -16 25 -59 40 -95 15 -36 38 -89 51 -118 13 -29 24 -54 24 -56 0 -4 47
-106 143 -311 102 -219 283 -574 386 -760 19 -33 45 -80 58 -105 14 -25 44
-76 66 -115 22 -38 46 -79 52 -90 11 -20 126 -214 148 -249 174 -279 297 -471
316 -493 6 -7 11 -15 11 -18 0 -3 17 -29 38 -58 20 -29 42 -59 47 -68 6 -9 35
-51 65 -94 30 -43 62 -87 70 -99 137 -198 637 -844 710 -916 3 -3 30 -34 60
-70 30 -36 57 -67 60 -70 3 -3 37 -41 75 -85 39 -44 84 -96 102 -115 17 -19
41 -46 53 -60 207 -240 784 -807 1110 -1091 47 -41 90 -78 96 -84 24 -23 307
-259 360 -301 230 -184 563 -437 700 -532 94 -65 221 -153 229 -159 6 -5 35
-24 65 -43 30 -19 57 -38 60 -42 3 -4 17 -13 30 -20 14 -7 63 -39 110 -70 177
-116 574 -358 589 -358 5 0 11 -4 13 -8 2 -4 53 -35 113 -69 111 -62 131 -72
355 -193 278 -150 704 -352 1055 -502 332 -143 987 -389 1095 -413 8 -2 33
-10 55 -18 183 -71 826 -248 1238 -341 289 -66 829 -168 1011 -191 21 -2 56
-7 77 -10 21 -3 51 -7 67 -9 16 -2 62 -9 103 -15 41 -5 97 -12 124 -15 28 -3
61 -8 75 -10 14 -2 54 -7 90 -10 36 -4 83 -9 105 -11 22 -3 63 -7 90 -9 28 -3
79 -7 115 -11 146 -13 170 -15 280 -21 63 -3 126 -7 140 -10 152 -25 1412 -25
1660 0 19 2 87 7 150 10 63 4 129 8 145 10 17 2 69 7 117 11 49 3 96 8 105 9
10 2 58 7 108 11 49 4 92 8 95 10 3 1 37 6 75 9 39 4 84 8 100 11 255 33 358
47 400 55 47 9 72 13 163 25 20 3 46 8 58 10 12 3 39 7 60 10 21 4 46 8 54 10
8 3 33 7 55 10 22 4 141 27 265 52 216 43 238 48 278 57 9 2 60 14 112 26 212
47 457 112 850 224 89 26 341 106 471 152 74 25 143 48 154 51 11 3 34 11 52
19 17 8 37 14 45 14 8 0 17 3 21 6 3 3 41 19 84 34 103 36 409 156 488 190 22
10 65 28 95 40 30 12 73 30 95 40 22 10 74 32 115 50 41 18 102 45 135 60 33
15 83 37 110 50 118 53 622 305 760 380 261 143 272 150 437 247 223 131 237
139 424 258 69 44 147 93 172 110 130 82 585 400 626 437 11 10 23 18 26 18 4
0 19 10 33 22 14 13 56 46 93 73 89 65 409 317 458 360 10 9 159 133 215 180
14 11 37 31 52 45 15 14 42 38 60 54 19 16 72 63 119 105 47 42 90 81 96 86
152 134 598 575 779 769 61 65 115 124 121 130 26 27 273 307 311 352 41 49
65 77 106 124 12 14 56 69 99 122 86 108 108 135 124 152 12 14 161 207 189
245 11 15 52 70 91 122 111 148 385 537 419 596 6 10 40 63 76 118 146 222
309 489 439 720 40 72 84 150 98 175 98 172 408 793 482 964 9 23 27 64 40 91
108 240 253 597 335 825 82 229 111 311 154 440 142 428 307 1025 380 1375 12
55 30 141 40 190 11 50 22 106 25 126 3 20 8 42 10 50 3 8 7 30 10 49 5 33 8
50 21 110 3 14 7 43 11 65 3 22 7 47 9 55 2 8 6 29 9 45 2 17 12 75 21 130 9
55 18 111 20 125 4 22 27 195 41 305 3 22 7 51 9 65 4 24 9 70 20 178 3 26 7
65 9 87 3 22 7 69 11 105 3 36 8 88 11 115 6 67 12 142 19 250 3 50 8 117 10
150 27 403 27 1285 1 1675 -2 25 -6 95 -10 155 -4 61 -8 128 -11 150 -4 36
-11 112 -21 230 -3 41 -9 100 -19 190 -9 80 -46 378 -50 405 -2 14 -6 39 -9
55 -2 17 -10 66 -16 110 -6 44 -20 130 -31 190 -10 61 -21 128 -25 150 -10 73
-92 478 -129 640 -172 760 -397 1472 -693 2200 -49 121 -106 255 -126 298 -20
43 -36 80 -36 82 0 2 -18 43 -40 90 -22 47 -40 88 -40 91 0 8 -315 641 -363
729 -95 175 -128 235 -198 355 -39 69 -77 134 -83 145 -6 11 -51 87 -101 168
-49 81 -94 155 -100 165 -16 28 -189 297 -195 302 -3 3 -9 13 -15 22 -5 10
-34 52 -62 93 -29 42 -53 78 -53 81 0 3 -13 22 -29 42 -15 20 -68 93 -116 162
-90 127 -353 481 -364 490 -4 3 -38 46 -76 95 -118 152 -414 504 -535 635 -14
15 -45 49 -69 76 -212 240 -670 699 -943 946 -137 124 -331 294 -402 353 -27
22 -54 45 -60 50 -6 6 -58 48 -116 95 -58 47 -114 92 -125 101 -84 69 -339
265 -486 372 -96 70 -276 196 -376 263 -65 43 -122 83 -128 87 -29 24 -410
265 -558 353 -27 16 -70 42 -95 57 -26 15 -55 31 -64 34 -10 3 -18 9 -18 14 0
5 -4 9 -10 9 -5 0 -44 20 -86 45 -41 25 -77 45 -79 45 -1 0 -51 28 -111 61
-124 70 -643 334 -779 396 -49 23 -130 60 -180 83 -157 72 -411 179 -629 264
-116 46 -220 87 -231 91 -11 4 -24 9 -30 11 -5 1 -64 22 -130 47 -136 51 -520
178 -700 232 -126 38 -171 51 -295 85 -41 11 -97 27 -125 35 -72 21 -533 133
-645 156 -52 11 -104 22 -115 25 -136 28 -487 93 -625 114 -41 7 -83 14 -93
16 -10 1 -70 10 -135 19 -64 8 -133 18 -152 21 -19 3 -53 7 -75 10 -22 2 -74
9 -115 14 -90 11 -204 23 -330 35 -36 3 -81 8 -100 10 -57 6 -206 17 -415 31
-60 3 -139 8 -175 11 -76 4 -1117 12 -1122 8z"/>
</g>
</svg>
